<?xml version="1.0" encoding="utf-8"?>
<!-- Generator: Adobe Illustrator 21.0.0, SVG Export Plug-In . SVG Version: 6.00 Build 0)  -->
<svg version="1.1" id="Calque_1_xA0_Image_1_" xmlns="http://www.w3.org/2000/svg" xmlns:xlink="http://www.w3.org/1999/xlink"
	 x="0px" y="0px" viewBox="0 0 154.3 127.4" style="enable-background:new 0 0 154.3 127.4;" xml:space="preserve">
	 <style type="text/css">.white{fill:white;}</style>
<path class="white" d="M25.8,55.2c-0.9-0.6-1.8-1.2-2.6-1.8c-0.6-0.5-1.3-0.9-1.8-1.5c-0.4-0.6-0.3-1.2,0.7-1.2c1.1,0,2.1,0,3.3,0
	c-0.3-1-0.3-2-1.7-1.5c-0.3,0.1-0.7,0.1-0.9,0c-0.3-0.1-0.6-0.5-0.8-0.7c0.3-0.2,0.5-0.6,0.9-0.6c0.9-0.2,2-0.1,1.7-1.7
	c1.8,0.6,2.8-0.4,3.8-1.7c-0.9-1.4-2.5-0.3-3.8-0.8c0.2-2.3,2.2-3.1,3.8-4.3c-1-1.6-2.8-2.8-2.9-5c1.6-0.5,2.1,1.3,3.6,1.5
	c-0.5-0.8-0.9-1.5-1.2-2.2c-0.4-1-0.8-2-1.1-3c-0.1-0.2,0.2-0.8,0.4-0.9c0.3-0.1,0.8,0.1,1,0.3c0.5,0.3,0.8,0.9,1.3,1.2
	c1.1,0.7,2.1,0.2,2.3-1.2c0-0.1,0-0.2,0-0.2c0.1-1.1,0.3-2.1,1.7-1.6c0.3-1.3,0.6-2.4,0.8-3.6c0.8,0.4,1.4,0.9,2.2,1.1
	c0.5,0.1,1.1-0.1,1.5-0.3c0.2-0.1,0-0.9-0.1-1.3c-0.3-0.7-0.7-1.4-1-2c-0.3-0.7,0-1.3,0.7-1.6c0.7-0.3,1.1,0.2,1.3,0.9
	c0.2,0.4,0.3,0.9,0.5,1.3c0.1,0,0.3,0,0.4,0c0.3-1.4,0.7-2.9,1-4.3c0.1-0.4,0.3-0.9,0.6-1.2c0.8-0.7,1.8-1.4,2.7-2.1
	c0.8-0.6,1.4-1.3,1-2.6c0.4,0.4,0.7,0.8,1.1,1.1c0.9,1,1.5,0.9,1.9-0.4c0.3-0.9,0.5-1.8,0.8-2.7c0.1-0.3,0.4-0.5,0.6-0.7
	c0.2,0.2,0.4,0.4,0.6,0.6c0.3,0.3,0.6,0.6,1,0.9c0.2-0.4,0.4-0.8,0.5-1.3c0.1-0.5,0-0.9,0-1.1c0.9-0.3,1.8-0.5,2.5-0.7
	c1.8-0.7,2.2-0.3,2.5,1.2c0.1,0.7,0.5,1.3,0.7,1.9c0.2,0,0.3,0,0.5,0c0.1-0.5,0.2-1,0.2-1.4c0-0.4-0.3-0.8-0.4-1.1
	c-0.4-1.5-0.2-1.9,1.3-2.3c0.9-0.2,1.9-0.5,1.3-2c1.9,0.9,1.5,2.4,1.4,3.8c2.1,0.4,3-1.9,5-2.4c-0.2,1.1-0.4,2-0.5,3
	c1.8-1.3,3.4-2.6,3.1-5.3c1.8,1.6,4.8,0.5,5.9,3.2c1.7-0.3,1.7-1.7,2-3c1.6,1.9,3.1-0.2,4.7,0.1c0,1.2,0,2.5,0,3.8
	c0.1,0,0.2,0.1,0.3,0.1c0.5-0.8,1-1.5,1.5-2.3c0.7-1,1.6-1.7,2.9-1.6c0.3,0,0.6,0.3,0.8,0.4c-0.3,0.2-0.5,0.4-0.8,0.5
	C86.5,5,86.3,5,85.8,5.2c0.6,0.7,0.9,1.4,1.5,1.8c0.2,0.1,1-0.3,1.3-0.7c0.7-0.7,1.1-1,1.9,0c0.6,0.8,1.7,1.2,2.7,0.6
	c0.9-0.5,1.1-0.1,1.3,0.6c0.5,1.6,0.5,1.5,2.2,1.4c1.4-0.1,2.9,0,4.3,0.2c1,0.1,1.3,0.8,1,1.8c-0.2,0.9-0.5,1.8-1,2.9
	c-0.2-0.4-0.4-0.9-0.6-1.3c-0.2,0.1-0.3,0.2-0.5,0.2c0.1,0.5,0.2,1.3,0.4,1.4c1,0.1,1.9,0,2.9-0.2c0.1,0,0-1.1,0-1.7
	c1.2-0.3,1.6,0,1.6,1.1c0,0.2-0.1,0.5,0,0.7c0.2,0.5,0.5,0.9,0.8,1.3c0.4-0.2,0.7-0.4,1.1-0.7c0.1-0.1,0.2-0.2,0.1-0.1
	c1.5,0.4,3,0.8,4.5,1.2c-0.1,0.9,0.3,1.8,1.2,2.5c0.3,0.2,0.3,1,0.2,1.3c-0.4,0.8-0.9,1.5-1.6,2.5c1.9,0,3.8,0,5.8,0
	c0.5,0,1,0.3,1.4,0.7c0.5,0.4,0.8,0.9,1.3,1.5c-0.7,1.1-1.5,2.3-2.3,3.5c0.1,0,0.3,0,0.6-0.1c0.5-0.2,0.9-0.4,1.4-0.6
	c0,0.5,0,1,0.1,1.5c0,0.1,0,0.1,0.1,0.4c2.4-1.1,3.2,1.8,5.3,2c-0.7,1.4-1.6,0.2-2.3,0.5c-0.7,1.4-0.4,2.7,0.8,3.6
	c1.2,0.9,2.5,1.7,3.8,2.5c-0.3,2,0,2.6,2.2,3.3c0.3,0.1,0.6,0.1,0.9,0.3c0.2,0.1,0.5,0.3,0.5,0.5c0,0.2-0.3,0.4-0.5,0.6
	c-0.3,0.3-0.7,0.7-1,1c0.4,0.2,0.9,0.4,1.3,0.7c0.2,0.1,0.4,0.3,0.6,0.5c-0.2,0.2-0.3,0.4-0.5,0.6c-0.2,0.2-0.6,0.2-0.7,0.4
	c-0.1,0.3-0.1,0.7-0.1,1.1c0,0.1,0.5,0.2,0.8,0.1c0.4-0.1,0.8-0.3,1.3-0.4c0,1.2,0,2.3,0,3.1c-0.6,0.8-1,1.5-1.6,2.1
	c-0.5,0.5-1.1,1-1.7,1.4c0.9,0.3,2.1,0.8,3.2,1.2c-2,0.8-2.9,2.3-3.2,4.2c-1.3,0-1.3-0.9-1.5-1.8c-0.8,0.9-0.3,2.9-2.5,2.4
	c0.2,0.7,0.4,1.2,0.5,1.7c-1.7,1.2-2.8,1.2-4.1-0.1c-0.1,0-0.1,0.1-0.2,0.1c-0.3,0.4-0.5,0.8-0.8,1.2c-0.3-0.5-0.7-0.9-0.8-1.4
	c-0.3-1.5-0.7-1.7-2-1.3c-0.5,0.2-1.1,0.1-1.7,0.2c0-0.5,0-1.1,0-1.6c0-0.2,0-0.4,0-0.6c-0.8,0.3-0.8,0.3-1,2.9
	c-0.4-0.3-0.9-0.4-1.1-0.7c-0.4-1.2-1.2-1.4-2.3-0.9c-0.6-1-0.5-2.7-2-2.5c-0.2-0.8-0.4-1.6-0.6-2.3c-0.6,0.4-1.2,0.8-1.9,1.3
	c-0.7-0.3-1-0.8-0.5-1.8c0.3-0.6,0.9-1.4,0.1-1.9c-0.8-0.5-1.5,0.1-2.1,0.7c-0.6,0.8-1,1.9-2.2,2c-0.3-1.1-0.6-2.2-1-3.4
	c-1.1,0.7-2.2,1.4-3.2,2c-0.3,0.2-0.9,0.3-1.2,0.1c-2.2-1-4-0.6-5.7,1.1c-0.8,0.8-1.5,1.7-2.3,2.4c-0.9,0.8-1.8,1.6-2.9,2
	c-0.8,0.3-1.1,0.7-1.4,1.5c-1.1,3.6-1.4,7.2-1.1,10.9c0.2,2.8,0.6,5.6,0.9,8.3c0.3,2.7,1.9,4.3,4.3,5.1c2.5,0.7,5,1.2,7.6,1.7
	c2.7,0.5,5.4,1,7.9,2.4c0.2,0.1,0.6,0.2,0.9,0.2c1.5-0.4,2.9,0.1,4.3,0.7c2.2,0.9,4.5,1.8,6.8,2.6c0.8,0.3,1.7,0.1,2.5,0.4
	c3.9,1.4,7.9,0.6,11.8,0.7c4.7,0.1,9.5,0,14.3,0.3c-45.3,0-90.5,0-135.8,0c0-0.1,0-0.1,0-0.2c15.5,0,31,0,46.6,0
	c-1-1.4-1.9-2.6-2.9-3.8c-0.9-1.2-1.1-1.2-2.4-0.5c-2.3,1.2-4.6,2.3-7,3.3c2.8-1.9,5.3-4.3,8.7-5.1c0.7-0.2,1.8,0.1,2.1,0.6
	c2,2.6,4.6,2.4,7.4,1.9c5.8-0.9,9.7-5.1,10.4-11c0.6-6.2,0.7-12.3-0.8-18.4c-0.3-1.3-0.9-2.6-1.5-3.9c-0.8-1.4-2-2.1-3.7-1.9
	c-1.8,0.2-3.3,0-4.9-1.1c-3-2.1-7-1-8.6,1.7c-0.4,0.6-0.9,1.2-1.4,1.6c-0.7,0.5-0.6,1-0.1,1.6c0.3,0.4,0.5,1,0.8,1.5
	c-2.7,0.5-2.8,0.6-2.5,2.2c-1,0.5-2,1-2.7,1.3c-1.1-0.6-2-1.1-3-1.6c-0.1,0-0.3,0.1-0.4,0.1c0.1,0.6,0.1,1.3,0.4,1.9
	c0.4,1,0.3,1.3-0.8,1.4c-2.2,0.2-4.1-0.2-5.6-2.1c-0.7,0.9-1.3,1.7-2,2.4c-0.2,0.3-0.7,0.4-1.1,0.5c0-0.4-0.1-0.7,0-1.1
	c0-0.4,0.3-0.8,0.2-1.2c0-0.4-0.3-0.8-0.4-1.2c-0.4,0.4-0.9,0.7-1.2,1.1c-0.1,0.2,0.1,0.6,0.1,0.9c-1.3,0-2.6,0-4.1,0
	c-0.2-0.9-0.9-1.5-2.1-1.6c-0.3,0-0.6-0.2-0.8-0.3C25.3,61.4,25,61,25,60.7c0-0.2,0.4-0.5,0.7-0.7c0.4-0.3,0.8-0.6,1.1-0.8
	c-0.5-0.3-0.9-0.7-1.4-0.8c-1.1-0.3-2.3-0.4-3.4-0.5C22.5,55.8,23.4,55.3,25.8,55.2z M90.4,45.6c-0.5-0.6-0.9-1.1-1.3-1.6
	c-0.6-0.9-1.1-2-2.5-1.7c-1.5,0.3-3,1-3.6,2.4c-0.7,1.5-1,3.1-1.4,4.7c-0.3,1.1-0.3,2.2,0.5,3.2C85.9,51.5,88.8,49.2,90.4,45.6z
	 M41.5,41.4c-0.1,0.1-0.2,0.2-0.3,0.4c0.5,0.7,0.9,1.7,1.6,2.1c1,0.5,1.9,0,2.6-1.3c0.2-0.3,0.4-0.7,0.6-1c0.2-0.3,0.6-0.4,0.9-0.6
	c0,0.4,0.2,0.7,0.1,1.1c-0.3,1.1,0.1,1.5,1.2,1.3c0.4-0.1,0.7-0.4,1.1-0.4c0.3,0,0.6,0.3,0.9,0.4c-0.2,0.3-0.3,0.7-0.6,0.8
	c-0.4,0.1-0.8,0-1.6,0c1.3,1.5,2.4,2.6,3.5,3.9c0.3-2.8,0.3-2.8,2.6-2.6c0-0.1,0.1-0.2,0.1-0.3c0-1.7-1.2-2.4-2.6-3.1
	c-1.1-0.5-2-1.2-3.1-1.8c-0.5-0.3-1-0.8-1.5-0.7c-0.9,0.2-1.9,0.5-2.7,1.1C43.5,41.4,42.6,41.9,41.5,41.4z M77.5,38.8
	c-0.6,3.3-1.3,6.5-1.8,9.6c-0.2,1.3,0.2,2.7,1.1,3.8C79.6,50.9,80.2,41.2,77.5,38.8z M98.6,89.5c0,1.8,0.9,2.8,2.5,2.8
	c4.2,0,8.5,0,12.7,0c0.4,0,0.8,0,1.2,0c-2.4-1.2-4.8-2.1-7.2-3c-0.2-0.1-0.6-0.1-0.8,0c-2.6,1.4-5.2,1.4-7.9,0.2
	C98.9,89.5,98.8,89.5,98.6,89.5z M73.9,23.9c0.2,0.7,0.4,1.2,0.6,1.7c0.4,0.8,0.3,1.4-0.7,1.6c-1.1,0.2-2.3,0.4-3.7,0.6
	c0.4,1.1,0.8,2.5,1.5,3.6c0.4,0.7,1.2,1.4,2.1,0.5c1.2-1.3,2.3-2.6,3.5-4c-0.3,0-0.5,0-0.6,0.1c-1.2,0.3-1.3,0.1-1-1.1
	c0.1-0.3,0.2-0.6,0.2-0.9C75.9,24.5,75.6,24.2,73.9,23.9z M27.9,48.3c2.9,0.6,3.8,3.4,6.1,4.8c0.1-0.9,0.1-1.7,0-2.5
	c-0.4-1.9-0.4-1.9,1.1-2.9C32.7,46.2,30.3,46.4,27.9,48.3z M89.2,90.7c1,1,2,1.7,3.5,1.7c1.8-0.1,3.7,0,5.5,0c0.3,0,0.6-0.1,1.2-0.1
	c-0.7-0.7-1.2-1.3-1.7-1.9c-0.7-1-1.7-1.1-2.8-0.9C93,89.8,91.2,90.3,89.2,90.7z M84.3,92.3c0-0.1,0-0.2,0-0.3
	c-0.5-0.1-1-0.4-1.4-0.4c-2.2,0.1-3.2-1.4-4.4-2.8c-0.3-0.4-0.6-0.7-1-1c-0.2-0.2-0.6-0.4-0.8-0.4c-1.1,0.3-1.2,1.3-1.3,2.2
	c0,0.9-0.2,2.4,1,2.5C79.1,92.5,81.7,92.3,84.3,92.3z M64.4,47.4c0,0.2,0,0.4-0.1,0.6c2.9,1.8,5.8,3.7,8.6,5.5
	c0.2,0.1,0.5,0.1,1,0.3c-1.9-3-4.1-5.3-7.3-6.3C66,47.2,65.2,47.4,64.4,47.4z M114.2,48.1c-0.8-0.1-1.6-0.2-2.4-0.1
	c-0.6,0.1-1.1,0.4-1.6,0.6c0.2,0.5,0.4,1.1,0.7,1.5c0.7,0.7,1.5,1.4,2.4,2.2c0.5-0.2,1.1-0.4,1.7-0.6c1-0.3,0.9-0.9,0.5-1.6
	C115.1,49.3,114.6,48.7,114.2,48.1z M59.9,26.9c1.1,2.2,2.3,2.5,4.1,1.4c0.5-0.3,1.1-0.7,1.6-1c0.6-0.3,1.2-0.4,1-1.3
	c-0.2-0.8-0.6-1.4-1.4-1.5c-0.2,0-0.6,0.1-0.7,0.2C63.5,26.5,61.9,27.1,59.9,26.9z M114.8,41.5c0.7-0.3,1.2-0.6,1.8-0.7
	c0.6-0.2,1.2-0.2,1.8-0.3c0.8-2-0.4-4-2.7-4.5C115.5,37.7,115.2,39.4,114.8,41.5z M89.5,92.4c0-0.1,0.1-0.3,0.1-0.4
	c-2.4-1.3-4.5-3.1-7.2-3.9c0.9,1.5,1.8,3.1,3.1,3.9C86.5,92.7,88.1,92.3,89.5,92.4z M93.5,36.3c0-1,0-2,0-2.7
	c-1.2-0.5-2.2-1-3.3-1.5C89.3,34.5,90.8,36.5,93.5,36.3z M88,27.3c-0.4,0-0.6,0-0.7,0c-0.5-0.1-1-0.1-1.6-0.2
	c0.2-0.3,0.6-0.7,0.7-1.1c0.1-0.4,0-0.9-0.2-1.2c-0.1-0.2-0.7-0.2-1-0.1c-0.6,0.3-1.1,0.7-1.6,1.1c0.6,2.1,2.1,3.2,4.4,3.4
	C88,28.7,88,28,88,27.3z M95.7,43.2c0,1.2,0,2.1,0,3.3c1.1-0.5,2.2-0.9,3-1.2c0.4-1.3,0.7-2.4,1-3.5c-2-0.5-1.3,1.7-2.1,2.3
	C96.9,43.7,96.4,43.5,95.7,43.2z M70.8,89.7c-2.4,1-4.9,1.2-7.5,1.4c-0.9,0.1-1.9,0.6-2.8,0.9C64.3,92.6,67.9,92.3,70.8,89.7z
	 M73.3,21.7c0-0.2,0-0.3,0-0.5c0.4-0.7,0.7-1.3,1.1-2c0.2-0.3,0.2-0.7,0.3-1.1c-0.4-0.1-0.7-0.3-1.1-0.2c-1.5,0.2-2.4,1.1-3,2.7
	C71.5,21,72.4,21.4,73.3,21.7z M78.3,18.7c-0.2-1-0.3-2-0.7-2.9c-0.2-0.4-1-0.8-1.4-0.7c-0.5,0.1-1.2,0.4-1.2,1.3
	c0.1,1.8,0,1.8,1.8,1.9C77.2,18.4,77.6,18.5,78.3,18.7z M39.5,46.7c-0.2-1.1-0.2-2.1-0.5-3c-0.1-0.4-0.8-0.8-1.3-0.8
	c-0.3,0-0.8,0.6-0.9,1C36.1,45.5,37.2,46.7,39.5,46.7z M75.6,92.3c-0.4-0.8-0.7-1.5-1-2.2c-0.6-1.1-1-1.1-1.8-0.1
	c-0.7,0.9-1.7,1.7-2.4,2.4c1.4,0,3,0,4.6,0C75.1,92.3,75.3,92.3,75.6,92.3z M96.9,15.1c-1.2,0-1.9-0.1-2.5,0
	c-0.5,0.1-1.2,0.8-1.2,0.9c0.4,0.8,1,1.5,1.6,2.2c0.1,0.2,1,0,1.1-0.3C96.3,17.1,96.5,16.1,96.9,15.1z M46.5,23
	c0-1.5-1.1-2.5-2.2-2.6c-0.9,0-1,0.6-1,1.2c-0.1,1,1,2.2,2.1,2C45.9,23.6,46.3,23.1,46.5,23z M71.1,42.8c0.2-2.1-0.9-3.3-2.6-2.9
	c-0.8,0.2-0.9,0.6-0.6,1.3C68.6,42.5,69.8,42.7,71.1,42.8z M57.6,48c0.1-0.2,0.2-0.4,0.3-0.6c-0.5-0.5-0.9-1.1-1.5-1.4
	c-0.3-0.2-1.1,0-1.2,0.2c-0.2,0.7-0.7,0.9-1.3,0.9c-0.2,0-0.5,0.3-0.7,0.4c0.2,0.2,0.5,0.6,0.7,0.6C55.1,48,56.4,48,57.6,48z
	 M89.4,21.8c-0.6,0.1-1.2,0.1-1.8,0.2c0.2,2.1,1.1,2.9,2.4,2.8c0.1-0.8,0.1-1.6,0.2-2.3c0.2-0.8,0.3-1.4-0.6-2
	C89.5,21,89.5,21.4,89.4,21.8z M95.8,23.3c-1.7,0.4-2.4,1.4-2.2,2.9c0.1,0.4,0.3,0.8,0.5,1.1c0.4-0.2,1.1-0.4,1.2-0.8
	C95.6,25.6,95.7,24.6,95.8,23.3z M114.9,29.6c-1-1.5-2.3-1.9-4-1.5c0.6,0.9,1.1,1.8,1.5,2.5C113.4,30.2,114.1,29.9,114.9,29.6z
	 M102,33.8c0.3-0.7,0.6-1.3,0.8-1.9c0.1-0.5,0.1-1,0.2-1.5c-0.5,0-1.2-0.2-1.4,0.1c-0.5,0.4-1,1.2-1,1.7
	C100.6,33.1,101.2,33.8,102,33.8z M51.3,27.7c0.7-0.1,1.5-0.5,1.4-1.4c-0.2-1.1-1.4-0.8-2.2-0.9c-0.4,0-1.1,0.4-1.2,0.8
	C49.2,26.9,50.3,27.7,51.3,27.7z M38.8,27.9c0,0.6-0.1,1.1,0,1.4c0.2,0.4,0.7,0.9,1.1,1c0.9,0.1,2-1.3,1.8-2.4
	C40.8,27.9,39.9,27.9,38.8,27.9z M106.8,32.1c1-0.3,1.7-0.4,1.7-1.5c0-0.9-0.4-1.2-1.2-1.2c-0.9,0-2,0.8-1.7,1.6
	C105.6,31.4,106.3,31.7,106.8,32.1z M46.2,31.9c0.1,0.1,0.2,0.2,0.2,0.3c0.4-0.4,1.1-0.8,1.2-1.3c0.1-0.8-0.8-1.5-1.8-1.5
	c-1,0-0.9,0.8-0.9,1.3C45,31.4,45.2,32.1,46.2,31.9z M79.1,32.8c0.8-0.1,1.4-0.3,1.8-0.2c0.9,0.2,1.1,0,1-0.8
	c-0.1-0.3-0.1-0.6-0.2-0.8c-0.2-0.4-0.5-0.7-0.7-1.1c-0.3,0.2-0.6,0.5-0.8,0.7c-0.3,0.3-0.7,0.7-0.9,1.1
	C79.1,32.1,79.2,32.6,79.1,32.8z M95.9,47.7c1.3,0.6,2.4,0.9,3.5,0.4c0.3-0.2,0.5-0.7,0.9-1.3C98.6,46.7,97.2,46.5,95.9,47.7z
	 M54.6,23.7c-0.3,1.1-0.8,1.9-0.7,2.7c0,0.3,1.3,0.5,2.2,0.8C56,25.8,56,24.7,54.6,23.7z M52.1,21c0.7-0.6,1.2-1,1.6-1.3
	c-0.4-0.4-0.8-1.2-1.1-1.2c-0.6,0-1.2,0.6-1.8,0.9C51.1,19.8,51.5,20.3,52.1,21z M88.9,8.1c-0.1-0.1-0.2-0.2-0.3-0.3
	c-0.3,0.4-0.8,0.8-0.9,1.2c-0.2,1.1,1,2.4,2.3,2.8C89.7,10.6,89.3,9.4,88.9,8.1z M53.3,29.5c-0.2,1.5,0.6,2.2,2.4,2.2
	C55.8,30,55,29.2,53.3,29.5z M50.5,35.9c-0.1,0.1-0.1,0.3-0.2,0.4c0.5,0.7,1,1.4,1.5,2c0.2,0.2,0.6,0.3,1,0.3c0.1,0,0.4-0.4,0.4-0.5
	c-0.3-0.6-0.7-1.4-1.2-1.8C51.7,35.9,51,36,50.5,35.9z M94.2,30.4c0.4,0.7,0.5,1.5,1,1.7c0.4,0.2,1.1,0,1.6-0.1c0.1,0,0.3-0.8,0.1-1
	C96.3,30,95.4,30.3,94.2,30.4z M125.3,46.4c-2.2-0.2-3.1,0.3-2.9,1.7C124.2,48.3,124.9,47.9,125.3,46.4z M88.1,13.2
	c-0.7-0.7-1.3-1.2-1.9-1.8c-0.5,0.6-0.8,1-1.2,1.5C86,13.5,86.9,13.9,88.1,13.2z M47.7,46c-0.2,0.1-0.4,0.2-0.5,0.3
	c0.1,0.6-0.1,1.4,0.3,1.7c0.3,0.3,1.1,0.1,1.7,0.2c0.1-0.2,0.2-0.3,0.3-0.5C48.9,47.2,48.3,46.6,47.7,46z M105.4,46.3
	c0.2,0,0.3-0.1,0.5-0.1c0.5-0.7,1.5-1.2,0.9-2.6c-0.6,0.4-1.4,0.6-1.8,1.1C104.8,45,105.3,45.7,105.4,46.3z M66.2,45.7
	c0-0.2,0-0.4,0-0.6c-0.7-0.3-1.4-0.5-2.1-0.7c-0.1,0-0.5,0.6-0.4,0.8c0.3,0.4,0.6,0.9,1,1C65.2,46.2,65.7,45.9,66.2,45.7z M103.6,21
	c-0.2,2,0.1,2.6,1.3,2.8C105.3,22.2,105,21.5,103.6,21z M98.6,28.3c1.4,0.6,1.7,0.5,2.3-1c-0.6-0.2-1.2-0.4-1.8-0.6
	C98.9,27.4,98.7,27.8,98.6,28.3z M74.1,12.8c-0.2-1.3-0.7-2.2-1.8-2.7C71.9,11.6,72.2,12,74.1,12.8z M110.1,33.8
	c-0.1,0.1-0.2,0.2-0.3,0.3c0.4,0.6,0.8,1.2,1.2,1.7c0.4-0.4,0.8-0.8,1.3-1.4C111.3,34.2,110.7,34,110.1,33.8z M31.3,43.8
	c0.1-0.8,0.2-1.7-0.8-1.9c-0.3-0.1-0.9,0.3-0.9,0.5C29.5,43.4,30.4,43.6,31.3,43.8z M106.4,39.8c0.1,0.1,0.3,0.1,0.4,0.2
	c0.4-0.3,0.9-0.6,1-1c0.1-0.3-0.2-0.8-0.5-1.1c-0.2-0.2-0.9,0-0.9,0C106.3,38.6,106.4,39.2,106.4,39.8z M101.5,36
	c-0.6-0.6-0.7-1.7-1.8-1.2c-0.2,0.1-0.3,0.9-0.2,1.1C100,36.6,100.7,36.6,101.5,36z M57.3,30.9c0,0.7,0,1.3,0,1.9
	c1.4-0.1,1.6-0.5,1.3-1.9C58.2,30.9,57.8,30.9,57.3,30.9z M119.6,44.2c-0.1-0.2-0.2-0.4-0.3-0.6c-0.6,0.2-1.2,0.4-1.7,0.7
	c-0.1,0.1,0.3,0.9,0.5,1.5C118.7,45.2,119.2,44.7,119.6,44.2z"/>
<path class="white" d="M144.7,125.3c-45.3,0-90.6,0-135.8,0c0-0.1,0-0.1,0-0.2c45.3,0,90.6,0,135.8,0C144.6,125.2,144.6,125.2,144.7,125.3z"/>
<path class="white" d="M22.7,117.3c2,0,3.9,0.1,5.7,0c1.9-0.2,3.1-1.5,3.9-3.2c0.3-0.6,0.5-1.2,0.9-1.8c0,1.8,0,3.5,0,5.4c-5.3,0-10.5,0-15.7,0
	c0-0.1,0-0.1,0-0.2c0.8,0,1.6-0.1,2.5-0.1c0-6.1,0-12.1,0-18.2c-0.9,0-1.7,0-2.6,0c0-0.1,0-0.2,0-0.2c2.6,0,5.2,0,7.8,0
	c0,0.1,0,0.1,0,0.2c-0.8,0-1.6,0.1-2.5,0.1C22.7,105.2,22.7,111.2,22.7,117.3z"/>
<path class="white" d="M68.8,107.6c-1.4,3.1-0.4,6.4-0.8,9.6c0.7,0.1,1.3,0.2,1.9,0.2c0,0,0,0.1,0,0.1c-1.9,0-3.9,0-5.9,0c0-0.1,0.1-0.2,0.1-0.2
	c1.7-0.2,1.7-0.2,1.7-2c0-2.2,0-4.3,0-6.5c0-1,0-2-1.1-2.5c-1.2-0.5-2.3,0-3,0.9c-0.6,0.8-1.2,1.8-1.3,2.7c-0.2,2.2-0.2,4.4-0.2,6.6
	c0,0.2,0.5,0.6,0.8,0.7c0.3,0.1,0.7,0.1,1,0.3c-1.9,0-3.8,0-5.7,0c0,0,0-0.1,0-0.1c0.5-0.1,1-0.1,1.6-0.2c0-3.6,0-7.1,0-10.7
	c-0.5-0.1-1-0.1-1.6-0.2c0,0,0-0.1,0-0.1c1.2,0,2.4,0,3.8,0c0,0.8,0,1.5,0,2.2c1-1.4,2.2-2.5,4-2.5c1.7,0,3.2,0.4,3.9,2.3
	C68.3,108.1,68.5,107.9,68.8,107.6L68.8,107.6z"/>
<path class="white" d="M124.8,111.1c-2.7,0-5.3,0-8.2,0c0.1,1.3,0.1,2.5,0.3,3.7c0.3,1.7,1.2,2.6,2.6,2.8c1.7,0.2,3.2-0.1,4.2-1.6
	c0.2-0.4,0.4-0.7,0.7-1.2c-0.1,1.4-1,2.6-2.4,2.9c-2.3,0.6-4.5,0.3-6.2-1.4c-1.7-1.7-2.1-3.8-1.3-6c0.8-2.3,2.5-3.8,5-4.2
	C122.4,105.6,124.8,107.8,124.8,111.1z M122.3,110.7c0-0.8,0.1-1.5,0-2.2c-0.1-1-0.5-1.9-1.6-2.1c-1.2-0.2-2.3-0.1-2.9,1.1
	c-0.5,1-0.7,2.1-1.1,3.3C118.6,110.7,120.4,110.7,122.3,110.7z"/>
<path class="white" d="M38.2,111c0.1,1.4,0.1,2.6,0.3,3.7c0.3,1.7,1.2,2.6,2.6,2.8c1.7,0.2,3.2-0.1,4.2-1.6c0.2-0.3,0.4-0.7,0.7-1.2
	c-0.1,1.4-0.9,2.5-2.3,2.9c-2.4,0.7-4.6,0.4-6.3-1.4c-1.7-1.7-2.1-3.9-1.2-6.2c0.9-2.3,2.6-3.7,5.1-4c2.9-0.3,5.1,1.8,5.2,5
	C43.7,111,41,111,38.2,111z M43.8,110.7c0-0.8,0.1-1.5,0-2.1c-0.1-1-0.4-2-1.6-2.2c-1.3-0.3-2.5,0.1-3.1,1.3c-0.4,0.9-0.6,2-0.9,3.1
	C40.2,110.7,41.9,110.7,43.8,110.7z"/>
<path class="white" d="M131.3,106.3c0,0.8,0.1,1.4,0.1,2.3c0.4-0.5,0.6-0.9,0.8-1.2c1-1.3,2.8-1.8,4-1.1c0.9,0.5,1.3,1.4,1,2.3
	c-0.1,0.4-0.8,0.8-1.3,0.9c-0.8,0.2-1.2-0.3-0.9-1.2c0.2-0.7,0.6-1.5-0.3-1.7c-0.5-0.1-1.5,0.2-1.8,0.6c-0.7,0.9-1.3,2-1.4,3.1
	c-0.2,2.3-0.1,4.6-0.1,7c0.7,0,1.4,0.1,2,0.1c0,0.1,0,0.1,0,0.2c-2,0-4.1,0-6.1,0c0.1-0.1,0.1-0.2,0.2-0.2c1.7-0.2,1.7-0.2,1.7-2
	c0-2.5-0.1-5,0-7.4c0-1.1-0.2-1.8-1.5-1.6c-0.1,0-0.3-0.1-0.4-0.2C128.6,106.3,129.9,106.3,131.3,106.3z"/>
<path class="white" d="M95,117.6c2-0.5,2-0.5,2-2.6c0-2.1,0-4.2,0-6.3c0-2,0-2-1.8-2.4c0.6,0,1.3,0,1.9,0c0.6,0,1.3,0,2,0c0,0.8,0.1,1.4,0.1,2.2
	c0.6-0.7,1-1.3,1.6-1.8c1.8-1.3,4.1-0.6,4.3,1.3c0.1,0.8-0.1,1.5-1.1,1.6c-1.1,0.1-1.3-0.3-1.2-1.3c0.1-0.5-0.1-1.1-0.2-1.6
	c-0.6,0.1-1.4,0-1.7,0.4c-0.7,1-1.5,2.1-1.6,3.2c-0.2,2.3-0.1,4.7-0.1,7.1c0.7,0,1.4,0.1,2,0.1c0,0.1,0,0.1,0,0.2
	C99.2,117.6,97.2,117.6,95,117.6z"/>
<path class="white" d="M89.3,106.6c-0.7-0.1-1.3-0.1-1.8-0.2c0,0,0-0.1,0-0.1c1.2,0,2.5,0,3.9,0c0,2.2,0,4.3,0,6.4c0,1.1,0.1,2.2,0,3.4
	c-0.1,1,0.2,1.6,1.3,1.4c0.2,0,0.4,0,0.6,0.2c-1.3,0-2.5,0-3.9,0c0-0.8,0-1.5,0-2.6c-0.5,0.6-0.8,1-1.1,1.4
	C90.1,113.3,88.8,109.9,89.3,106.6z"/>
<path class="white" d="M106,106.3c1.3,0,2.5,0,4,0c0,3.6,0,7.3,0,11c0.7,0.1,1.2,0.1,1.7,0.2c0,0,0,0.1,0,0.1c-1.9,0-3.8,0-5.8,0
	c2-0.5,2-0.5,2-2.6c0-2.1,0-4.2,0-6.4C107.8,106.7,107.8,106.7,106,106.3z"/>
<path class="white" d="M68.8,107.7c0.7-1.3,2.2-1.9,4-1.6c1.5,0.2,2.6,0.8,2.9,2.4c0.2,1.1,0.2,2.3,0.2,3.5c0,1.8,0,3.6,0,5.4
	c0.7,0.1,1.2,0.1,1.7,0.2c0,0,0,0.1,0,0.1c-1.9,0-3.8,0-5.7,0c0.1-0.1,0.1-0.2,0.1-0.2c1.7-0.2,1.7-0.2,1.7-1.9c0-2.2,0-4.3,0-6.5
	c0-1,0.1-2-1-2.5c-1.1-0.5-2.2-0.2-3.2,0.5C69.3,107.2,69,107.4,68.8,107.7C68.8,107.6,68.8,107.7,68.8,107.7z"/>
<path class="white" d="M87.5,116.8c-1.4,1.3-3,1.3-4.6,0.7c-1.4-0.5-1.9-1.8-1.9-3.2c0-2.6,0-5.1,0-7.7c-0.6-0.1-1.2-0.1-1.7-0.2c0,0,0-0.1,0-0.1
	c1.2,0,2.5,0,3.9,0c0,1.7,0,3.4,0,5c0,1.3,0,2.6,0.1,3.9c0.2,2.3,1.8,3,3.7,1.8C87.2,117,87.4,116.9,87.5,116.8z"/>
<path class="white" d="M89.6,102.8c-1.1-0.9-2.1-1.7-3.3-2.7c-1.1,0.9-2.2,1.8-3.3,2.7c-0.1-0.1-0.1-0.1-0.2-0.2c0.9-1.3,1.7-2.7,2.7-3.9
	c0.2-0.3,1.4-0.2,1.6,0.1c1,1.2,1.8,2.5,2.6,3.7C89.7,102.7,89.6,102.8,89.6,102.8z"/>
<path class="white" d="M110.4,100.4c-0.5,0.4-1.1,1-1.6,1c-0.5,0-1.2-0.7-1.3-1.2c-0.2-0.8,0.4-1.5,1.3-1.4c0.6,0.1,1.1,0.7,1.6,1
	C110.4,100.1,110.4,100.2,110.4,100.4z"/>
<rect class="white" x="8.9" y="92.6" width="135.8" height="1.4"/>
<rect class="white" x="8.8" y="124" width="135.8" height="1.1"/>
</svg>
