<?xml version="1.0" encoding="utf-8"?>
<!-- Generator: Adobe Illustrator 21.0.0, SVG Export Plug-In . SVG Version: 6.00 Build 0)  -->
<svg version="1.1" id="Calque_1" xmlns="http://www.w3.org/2000/svg" xmlns:xlink="http://www.w3.org/1999/xlink" x="0px" y="0px"
	 viewBox="0 0 15 16" style="enable-background:new 0 0 15 16;" xml:space="preserve">
<style type="text/css">
	.st0{fill:#43373B;}
	.st1{fill:#FFFFFF;}
</style>
<g>
	<path class="st0" d="M13.8,8.1V7.8c0,0-0.1,0-0.1,0.1h-0.1V7.8h0.1c0,0,0,0,0.1-0.1c0,0,0,0-0.1-0.1l-0.1-0.1l0.1-0.1
		c0,0,0.1,0,0.1-0.1c0,0,0,0-0.1-0.1h-0.1c-0.2-0.1-0.3-0.1-0.3-0.4c-0.2-0.1-0.3-0.2-0.4-0.3c-0.1-0.1-0.2-0.3-0.1-0.4
		c0.1,0,0.2,0.1,0.3-0.1c-0.2,0-0.3-0.4-0.6-0.2l0,0c0-0.1,0-0.1,0-0.2c-0.1,0-0.1,0.1-0.2,0.1h-0.1c0.1-0.1,0.2-0.3,0.3-0.4
		c-0.2-0.1-0.2-0.2-0.3-0.2c0,0-0.1-0.1-0.2-0.1c-0.2,0-0.4,0-0.7,0c0.1-0.1,0.1-0.2,0.2-0.3c0,0,0-0.1,0-0.2
		c-0.1-0.1-0.2-0.2-0.1-0.3c-0.2,0-0.3-0.1-0.5-0.1l0,0l-0.1,0.1c0-0.1-0.1-0.1-0.1-0.2V3.9c0-0.1,0-0.2-0.2-0.1c0,0.1,0,0.2,0,0.2
		c-0.1,0-0.2,0-0.3,0c0,0,0-0.1,0-0.2c0,0,0,0,0.1,0c0,0,0,0.1,0.1,0.1c0.1-0.1,0.1-0.2,0.1-0.3s0-0.2-0.1-0.2c-0.2,0-0.3,0-0.5,0
		s-0.2,0-0.3-0.2c0-0.1-0.1-0.1-0.2-0.1C9.3,3.2,9.2,3.1,9.1,3C8.9,3.1,8.9,3.1,8.8,3.2c0,0-0.1,0.1-0.2,0.1c0-0.1,0-0.2-0.1-0.2
		c0.1,0,0.1,0,0.1,0s0.1,0,0.1-0.1H8.6C8.4,2.9,8.3,3,8.3,3.1C8.2,3.2,8.1,3.3,8.1,3.4l0,0V2.9c-0.2,0-0.4,0.2-0.5,0
		c0,0.2,0,0.3-0.2,0.4C7.1,3,6.8,3.1,6.6,2.9c0,0.3-0.1,0.5-0.4,0.6c0-0.1,0-0.2,0.1-0.4C6.1,3.2,6,3.5,5.7,3.4
		c0-0.1,0.1-0.3-0.1-0.4c0.1,0.2,0,0.2-0.1,0.2c-0.2,0-0.2,0.1-0.2,0.3v0.1c0,0.1,0,0.1,0,0.2c0,0,0,0-0.1,0c0-0.1-0.1-0.1-0.1-0.2
		c0-0.2-0.1-0.2-0.3-0.1c0,0-0.1,0-0.2,0v0.1c0,0.1,0,0.1-0.1,0.1L4.4,3.6c0,0,0,0-0.1-0.1L4.2,3.6c0,0.1-0.1,0.2-0.1,0.3
		S4,4.1,3.9,3.9L3.8,3.8c0,0.1,0,0.2-0.1,0.3C3.6,4.3,3.5,4.4,3.4,4.5L3.3,4.6c0,0.2-0.1,0.3-0.1,0.5c0,0,0,0-0.1,0
		c0,0,0-0.1-0.1-0.1c0-0.1-0.1-0.1-0.1-0.1C2.8,4.9,2.8,5,2.8,5.1s0.1,0.2,0.1,0.2v0.1c0,0-0.1,0.1-0.2,0c0.1,0,0,0-0.1-0.1
		c0,0.1-0.1,0.3-0.1,0.4c-0.2,0-0.2,0.1-0.2,0.2l0,0c0,0.2-0.1,0.2-0.3,0.2C1.9,6.1,1.9,6,1.8,6H1.7c0,0-0.1,0.1,0,0.1
		s0.1,0.1,0.2,0.2C1.9,6.4,2,6.5,2,6.5C1.8,6.6,1.8,6.3,1.6,6.4c0,0.3,0.2,0.4,0.3,0.6C1.7,7.1,1.5,7.2,1.5,7.5
		c0.1,0,0.3-0.1,0.4,0.1C1.8,7.7,1.7,7.8,1.5,7.8C1.5,8,1.4,8,1.3,8c0,0-0.1,0-0.1,0.1c0,0,0,0,0.1,0h0.1c0.1,0,0.1,0.1,0.2,0.2
		c-0.1,0-0.3,0-0.4,0S1.1,8.4,1.1,8.4c0.1,0.1,0.1,0.1,0.2,0.2c0.1,0.1,0.2,0.1,0.3,0.2c-0.3,0-0.4,0.1-0.4,0.3c0.1,0,0.3,0,0.4,0.1
		c0.1,0,0.1,0.1,0.2,0.1L1.7,9.4L1.6,9.5c0,0,0,0.1,0.1,0.1h0.1C1.9,9.6,2,9.7,2,9.8h0.5V9.7c0-0.1,0.1-0.1,0.1-0.1s0,0.1,0.1,0.1
		v0.1v0.1c0,0,0.1,0,0.1-0.1c-0.1,0,0-0.1,0.1-0.2c0.2,0.2,0.4,0.3,0.6,0.2c0.1,0,0.1,0,0.1-0.2c0-0.1,0-0.1,0-0.2l0,0
		C3.7,9.5,3.8,9.6,4,9.6c0.1,0,0.2-0.1,0.3-0.1c0-0.2,0-0.2,0.3-0.2C4.5,9.2,4.5,9.1,4.5,9.1C4.4,9,4.4,9,4.5,8.9
		c0.1-0.1,0.1-0.1,0.2-0.2c0.2-0.3,0.6-0.4,1-0.2C5.8,8.6,6,8.6,6.2,8.6c0.2,0,0.3,0.1,0.4,0.2C6.7,9,6.8,9.1,6.8,9.3
		C7,10,7,10.7,6.9,11.4c-0.1,0.7-0.5,1.1-1.2,1.3c-0.3,0.1-0.6,0.1-0.8-0.2c0-0.1-0.2-0.1-0.2-0.1c-0.4,0.1-0.7,0.4-1,0.6
		c0.3-0.1,0.5-0.2,0.8-0.4c0.2-0.1,0.2-0.1,0.3,0.1c0,0.1,0.1,0.2,0.2,0.4H3.6l0,0h9l0,0c-0.1,0-0.2,0-0.3-0.1c-0.1,0-0.2,0-0.3,0
		c-0.3-0.1-0.5-0.2-0.8-0.3c-0.2-0.1-0.3-0.1-0.5-0.1h-0.1c-0.3-0.2-0.6-0.2-0.9-0.3c-0.3-0.1-0.6-0.1-0.9-0.2s-0.5-0.3-0.5-0.6
		s-0.1-0.6-0.1-1s0-0.8,0.1-1.3c0-0.1,0.1-0.1,0.2-0.2c0.1,0.1,0.2,0,0.3-0.1C8.9,8.8,9,8.7,9.1,8.6c0.2-0.2,0.4-0.2,0.7-0.1h0.1
		c0.1-0.1,0.2-0.1,0.4-0.2c0,0.1,0.1,0.3,0.1,0.4c0.1,0,0.2-0.1,0.2-0.2c0.1-0.1,0.1-0.1,0.2-0.1c0.1,0.1,0,0.1,0,0.2
		c-0.1,0.1,0,0.2,0.1,0.2C11,8.7,11,8.7,11.1,8.6c0,0.1,0,0.2,0.1,0.3c0.2,0,0.2,0.2,0.2,0.3c0.1-0.1,0.2,0,0.3,0.1l0.1,0.1
		c0-0.3,0-0.3,0.1-0.3c0,0,0,0,0,0.1s0,0.1,0,0.2c0.1,0,0.1,0,0.2,0c0.1-0.1,0.2,0,0.2,0.1s0.1,0.1,0.1,0.2l0.1-0.1l0,0
		c0.1,0.1,0.3,0.2,0.5,0c0-0.1,0-0.1-0.1-0.2c0.2,0.1,0.2-0.2,0.3-0.3c0,0.1,0,0.2,0.2,0.2c0-0.2,0.1-0.4,0.4-0.5
		c-0.1,0-0.3-0.1-0.4-0.1c0.1-0.1,0.1-0.1,0.2-0.2C13.7,8.3,13.7,8.2,13.8,8.1z M2.5,8.3c0,0.1,0,0.2,0,0.3C2.3,8.4,2.2,8.1,1.9,8
		c0.3-0.2,0.5-0.2,0.8-0.1C2.5,8.1,2.5,8.1,2.5,8.3z M2.9,7.5L2.9,7.5c0.2-0.1,0.2-0.1,0.2,0s0,0.2,0.1,0.3C2.9,7.8,2.8,7.7,2.9,7.5
		z M3.2,6L3.2,6C3.1,5.9,3.1,5.8,3.1,5.7h0.3C3.5,5.8,3.3,6,3.2,6z M4.9,7.7c-0.3,0-0.3,0-0.3,0.3C4.4,7.8,4.3,7.7,4.2,7.5
		c0.1,0,0.1,0,0.2,0c0,0,0-0.1,0.1-0.1c0,0-0.1-0.1-0.1,0H4.3c-0.1,0-0.2,0-0.1-0.2V7.1c0,0-0.1,0-0.1,0.1c0,0,0,0.1-0.1,0.1
		C3.8,7.5,3.7,7.6,3.6,7.5c-0.1,0-0.1-0.2-0.2-0.2l0,0c0.1,0.1,0.2,0,0.3-0.1C3.8,7.1,3.9,7,4.1,7c0,0,0.1,0,0.2,0.1
		s0.2,0.1,0.4,0.2C4.7,7.4,4.9,7.5,4.9,7.7L4.9,7.7z M4.8,5.5c0-0.1,0-0.2,0.1-0.3c0.2,0.1,0.2,0.2,0.2,0.4C5,5.6,4.8,5.5,4.8,5.5z
		 M8.9,5L8.9,5C9,4.9,9,5,8.9,5C9,5.1,9,5.2,9,5.3C8.8,5.3,8.7,5.2,8.7,5C8.8,5,8.8,5,8.9,5z M8.4,5.3h0.1v0.1L8.4,5.5
		c0.1,0,0.1,0,0.2,0c0,0,0,0,0.1,0v0.2c-0.3,0-0.4-0.1-0.5-0.4C8.3,5.4,8.4,5.3,8.4,5.3z M7.5,6.9c0.4,0.3,0.3,1.4,0,1.6
		C7.4,8.3,7.3,8.2,7.3,8C7.4,7.7,7.5,7.3,7.5,6.9z M7.1,4.5L7.1,4.5L7.1,4.5c0.1,0.2,0,0.3,0,0.3s0,0,0,0.1c-0.1,0-0.2,0-0.3-0.1
		C6.8,4.7,6.9,4.5,7.1,4.5z M7.1,5.6c0.1,0,0.1-0.1,0.1-0.2s0-0.1-0.1-0.2c0.2,0,0.2,0.1,0.2,0.2v0.1c0,0.1,0,0.2,0.1,0.1
		c0,0,0,0,0.1,0C7.4,5.8,7.2,6,7.1,6.1C7,6.2,6.9,6.2,6.9,6.1C6.8,5.9,6.7,5.8,6.7,5.7C6.9,5.6,7,5.6,7.1,5.6z M6.5,7.1
		c0.2-0.1,0.3,0,0.3,0.3c-0.2,0-0.3,0-0.4-0.2C6.4,7.1,6.4,7.1,6.5,7.1z M5.5,5.6c0.2,0,0.4,0,0.5-0.3h0.1c0.1,0,0.1,0.1,0.2,0.2
		c0,0.1-0.1,0.1-0.1,0.1C6.1,5.6,6.1,5.7,6,5.7C5.8,5.8,5.6,5.8,5.5,5.6z M6,8C6,8,6,7.9,6,8c0.1-0.1,0.2-0.1,0.3-0.1
		C6.7,8,6.9,8.3,7.1,8.6C7,8.6,7,8.6,7,8.6C6.7,8.4,6.4,8.2,6,8z M5.6,13c0.1,0,0.2-0.1,0.3-0.1c0.3,0,0.6,0,0.9-0.2
		C6.4,13.1,6,13.1,5.6,13z M7.2,13.1c-0.2,0-0.4,0-0.5,0C6.8,13,6.9,12.9,7,12.8c0.1-0.1,0.1-0.1,0.2,0C7.2,12.9,7.3,13,7.2,13.1
		C7.3,13.1,7.3,13.1,7.2,13.1z M8.3,13.1c-0.3,0-0.6,0-0.9,0c-0.1,0-0.1-0.2-0.1-0.3s0-0.2,0.1-0.3h0.1l0.1,0.1
		c0.1,0.2,0.3,0.3,0.5,0.3C8.2,13,8.3,13,8.3,13.1L8.3,13.1z M10,12.8c0.3,0.1,0.6,0.1,0.9,0H11c0.3,0.1,0.6,0.2,0.8,0.3h-1.6
		C10.1,13.1,10,13,10,12.8L10,12.8z M9.5,12.7c0.1,0,0.2,0,0.3,0.1S9.9,12.9,10,13c-0.1,0-0.1,0-0.1,0c-0.2,0-0.4,0-0.6,0
		c-0.2,0-0.3-0.1-0.4-0.2C9.1,12.8,9.3,12.8,9.5,12.7z M8.9,13C8.9,13.1,8.9,13.1,8.9,13c-0.2,0-0.4,0.1-0.5,0
		c-0.2-0.1-0.3-0.3-0.4-0.5C8.4,12.7,8.7,12.9,8.9,13z M8.1,8.5C8,8.4,8,8.3,8,8.1c0.1-0.2,0.1-0.4,0.2-0.5c0.1-0.2,0.2-0.2,0.4-0.3
		c0.2,0,0.2,0.1,0.3,0.2C8.9,7.6,9,7.6,9,7.7C8.8,8.1,8.5,8.4,8.1,8.5z M9.4,6.6C9.1,6.6,8.9,6.4,9,6.1c0.1,0.1,0.2,0.1,0.4,0.2V6.6
		z M10,7.7c-0.1,0-0.2,0.1-0.3,0.1V7.4c0.1,0,0.1,0.1,0.2,0.1c0.1-0.1,0-0.3,0.2-0.3C10.1,7.4,10,7.5,10,7.7z M11.6,6
		c-0.1-0.1-0.1-0.2-0.2-0.3c0.2-0.1,0.3,0,0.5,0.2C11.8,5.9,11.7,5.9,11.6,6z M12.3,7.1c-0.1,0-0.1,0-0.2,0c-0.1,0-0.1,0-0.2,0.1
		C11.9,7,12,6.8,12,6.6C12.2,6.7,12.3,6.9,12.3,7.1z"/>
	<path class="st1" d="M11.8,8c-0.1,0-0.2,0-0.3,0s-0.1,0-0.2,0.1c0,0.1,0,0.1,0.1,0.2c0.1,0.1,0.2,0.2,0.3,0.2s0.1,0,0.2-0.1
		C12,8.4,12,8.3,12,8.2C11.9,8.1,11.8,8.1,11.8,8z"/>
	<path class="st1" d="M7.6,4.6c0-0.1,0-0.2-0.1-0.3c0,0-0.1-0.1-0.2-0.1s-0.1,0-0.1,0.2s0,0.2,0.2,0.2C7.5,4.6,7.6,4.6,7.6,4.6z"/>
	<path class="st1" d="M9.8,4.2c-0.1,0-0.2,0-0.3,0S9.4,4.3,9.4,4.3c0.1,0.1,0.1,0.2,0.2,0.3h0.1C9.7,4.4,9.7,4.3,9.8,4.2z"/>
	<path class="st1" d="M4,5.1c0-0.2-0.1-0.3-0.2-0.3c-0.1,0-0.1,0.1-0.1,0.1C3.7,5,3.8,5.1,4,5.1C3.9,5.2,4,5.1,4,5.1z"/>
	<path class="st1" d="M5.3,8C5.3,8,5.3,7.9,5.3,8c0-0.1-0.1-0.2-0.1-0.2H5.1c0,0.1-0.1,0.1-0.2,0.1H4.8c0,0,0,0.1,0,0.1
		C5,8,5.1,8,5.3,8z"/>
	<path class="st1" d="M9.6,5.1c-0.2,0-0.3,0.2-0.3,0.3c0,0,0,0.1,0.1,0.1c0,0,0.1,0,0.1-0.1C9.6,5.4,9.6,5.3,9.6,5.1z"/>
	<path class="st1" d="M10.4,6.4c0-0.1,0.1-0.1,0.1-0.2s0-0.1,0-0.2c-0.1,0-0.1,0-0.2,0c-0.1,0-0.1,0.1-0.1,0.2
		C10.2,6.3,10.3,6.4,10.4,6.4z"/>
	<path class="st1" d="M4.5,5.6c0.1,0,0.2-0.1,0.2-0.2S4.5,5.3,4.5,5.3s-0.1,0-0.1,0.1C4.3,5.6,4.4,5.7,4.5,5.6z"/>
	<path class="st1" d="M10.9,6.2c0.1,0,0.2,0,0.2-0.2c0-0.1,0-0.1-0.1-0.1S10.8,6,10.8,6.1C10.8,6.1,10.9,6.1,10.9,6.2z"/>
	<path class="st1" d="M3.9,6.1C4,6.1,4,6.2,3.9,6.1c0.1,0,0.2,0,0.2-0.1S4,5.8,3.9,5.8C3.8,5.8,3.8,5.9,3.9,6.1
		C3.8,6.1,3.8,6.2,3.9,6.1z"/>
	<path class="st1" d="M7.7,6.2c0.1,0,0.2,0,0.2,0C8,6.2,8,6.2,8,6.1V6L7.9,5.9L7.8,6L7.7,6.2C7.7,6.2,7.7,6.2,7.7,6.2z"/>
	<path class="st1" d="M9.7,7.9C9.8,8,10,8,10.1,7.9c0,0,0.1-0.1,0.1-0.2C10,7.8,9.8,7.8,9.7,7.9z"/>
	<path class="st1" d="M4.6,4.9c0.1-0.1,0.2-0.1,0.2-0.2L4.7,4.6c-0.1,0-0.1,0.1-0.2,0.1C4.5,4.7,4.6,4.8,4.6,4.9z"/>
	<path class="st1" d="M8.9,3.4C8.8,3.4,8.8,3.4,8.9,3.4c-0.1,0-0.2,0.1-0.2,0.1c0,0.1,0.1,0.3,0.3,0.3C8.9,3.7,8.9,3.5,8.9,3.4z"/>
	<path class="st1" d="M4.8,5.9C4.7,6,4.8,6.1,5,6.1C5.1,5.9,5,5.8,4.8,5.9z"/>
	<path class="st1" d="M4.4,6.6L4.4,6.6c0,0.1,0.1,0.2,0.2,0.3h0.1c0,0,0,0,0-0.1S4.6,6.6,4.6,6.6C4.6,6.6,4.5,6.6,4.4,6.6z"/>
	<path class="st1" d="M9.5,6c0,0.1,0.1,0.2,0.1,0.2s0.1,0,0.2,0V6.1C9.7,5.9,9.6,6,9.5,6z"/>
	<path class="st1" d="M13,7.8c-0.3,0-0.4,0-0.3,0.2C12.9,8,13,8,13,7.8z"/>
	<path class="st1" d="M8.8,4C8.7,3.9,8.6,3.8,8.5,3.8c0,0,0,0.1-0.1,0.2C8.5,4,8.6,4.1,8.8,4z"/>
	<path class="st1" d="M4.1,7.8L4.1,7.8C4,7.9,4,8,4.1,8c0,0,0.1,0,0.2,0c0,0,0,0,0-0.1C4.3,7.9,4.2,7.8,4.1,7.8z"/>
	<path class="st1" d="M10.8,7.8L10.8,7.8C10.9,7.7,11,7.7,11,7.5c-0.1,0-0.2,0.1-0.2,0.1C10.7,7.6,10.7,7.7,10.8,7.8z"/>
	<path class="st1" d="M6.2,7.7L6.2,7.7c0-0.1-0.1-0.1-0.2-0.1L5.9,7.7L6,7.8C6.1,7.8,6.2,7.7,6.2,7.7z"/>
	<path class="st1" d="M10.5,4.9c0,0.2,0,0.3,0.1,0.3C10.7,5,10.7,4.9,10.5,4.9z"/>
	<path class="st1" d="M10,5.7c0.2,0.1,0.2,0.1,0.3-0.1c-0.1,0-0.1,0-0.2-0.1C10,5.6,10,5.7,10,5.7z"/>
	<path class="st1" d="M7.2,3.9c0-0.1-0.1-0.3-0.2-0.3C6.9,3.8,6.9,3.8,7.2,3.9z"/>
	<path class="st1" d="M11.3,6.4L11.3,6.4c0,0.1,0.1,0.2,0.1,0.2s0.1-0.1,0.2-0.2C11.4,6.4,11.4,6.4,11.3,6.4z"/>
	<path class="st1" d="M2.2,7.5c0-0.1,0-0.2-0.1-0.2c0,0-0.1,0-0.1,0.1C2,7.5,2.1,7.5,2.2,7.5z"/>
	<path class="st1" d="M10.9,7C10.9,7,10.9,7.1,10.9,7C11,7,11,7,11.1,6.9c0,0,0-0.1-0.1-0.1h-0.1C10.9,6.9,10.9,7,10.9,7z"/>
	<path class="st1" d="M10.3,6.6c-0.1-0.1-0.1-0.2-0.2-0.1v0.1C10.1,6.7,10.2,6.7,10.3,6.6z"/>
	<path class="st1" d="M5.2,6c0,0.1,0,0.2,0,0.2C5.4,6.2,5.4,6.1,5.2,6C5.3,6,5.3,6,5.2,6z"/>
	<path class="st1" d="M12.4,7.5L12.4,7.5c-0.1,0-0.2,0-0.2,0s0,0.1,0.1,0.2C12.3,7.7,12.3,7.6,12.4,7.5z"/>
</g>
</svg>
